<svg xmlns="http://www.w3.org/2000/svg" width="1600" height="900" viewBox="0 0 1600 900">
  <defs>
    <linearGradient id="grad1" x1="0%" y1="0%" x2="100%" y2="100%">
      <stop offset="0%" stop-color="#2563eb" stop-opacity="0.1" />
      <stop offset="100%" stop-color="#10b981" stop-opacity="0.1" />
    </linearGradient>
    <pattern id="pattern1" patternUnits="userSpaceOnUse" width="50" height="50" patternTransform="rotate(45)">
      <rect width="10" height="10" fill="#2563eb" fill-opacity="0.05" />
    </pattern>
  </defs>
  
  <!-- Background gradient -->
  <rect width="100%" height="100%" fill="url(#grad1)" />
  
  <!-- Pattern overlay -->
  <rect width="100%" height="100%" fill="url(#pattern1)" />
  
  <!-- Abstract shapes -->
  <circle cx="200" cy="150" r="300" fill="#2563eb" fill-opacity="0.03" />
  <circle cx="1400" cy="750" r="400" fill="#10b981" fill-opacity="0.03" />
  <circle cx="800" cy="400" r="350" fill="#2563eb" fill-opacity="0.02" />
  
  <!-- Code-like elements (subtle) -->
  <g fill="none" stroke="#2563eb" stroke-opacity="0.1" stroke-width="1">
    <path d="M100,200 L200,200 L200,250 L150,250 L150,300 L250,300" />
    <path d="M1300,600 L1400,600 L1400,650 L1350,650 L1350,700 L1450,700" />
    <path d="M800,100 L850,100 L850,200 L900,200 L900,250 L800,250 L800,350" />
  </g>
</svg>