<?xml version="1.0" encoding="UTF-8" standalone="no"?>
<svg width="800" height="600" viewBox="0 0 800 600" fill="none" xmlns="http://www.w3.org/2000/svg">
  <g transform="scale(0.8) translate(100, 50)">
    <!-- Checkerboard pattern -->
    <g transform="translate(500, 150) rotate(15)">
      <rect x="0" y="0" width="50" height="50" fill="#FFFFFF" />
      <rect x="50" y="0" width="50" height="50" fill="#1D1D1D" />
      <rect x="0" y="50" width="50" height="50" fill="#1D1D1D" />
      <rect x="50" y="50" width="50" height="50" fill="#FFFFFF" />
      <rect x="100" y="0" width="50" height="50" fill="#FFFFFF" />
      <rect x="150" y="0" width="50" height="50" fill="#1D1D1D" />
      <rect x="100" y="50" width="50" height="50" fill="#1D1D1D" />
      <rect x="150" y="50" width="50" height="50" fill="#FFFFFF" />
      <rect x="200" y="0" width="50" height="50" fill="#FF6B00" />
      <rect x="0" y="100" width="50" height="50" fill="#FFFFFF" />
      <rect x="50" y="100" width="50" height="50" fill="#1D1D1D" />
      <rect x="0" y="150" width="50" height="50" fill="#1D1D1D" />
      <rect x="50" y="150" width="50" height="50" fill="#FFFFFF" />
    </g>
    
    <!-- Main geometric elements -->
    <g transform="translate(100, 200) rotate(-15)">
      <!-- Rounded rectangles -->
      <rect x="100" y="0" width="300" height="120" rx="60" fill="#FFFFFF" stroke="#000000" stroke-width="2" />
      <rect x="120" y="20" width="260" height="80" rx="40" fill="#FF6B00" stroke="#000000" stroke-width="0" />
      
      <!-- Rotated rectangles -->
      <g transform="translate(0, 0) rotate(-15)">
        <rect x="0" y="0" width="180" height="80" fill="#FFFFFF" stroke="#000000" stroke-width="2" />
      </g>
      <g transform="translate(40, -60) rotate(-5)">
        <rect x="0" y="0" width="160" height="70" fill="#FFFFFF" stroke="#000000" stroke-width="2" />
      </g>
      <g transform="translate(80, -120) rotate(5)">
        <rect x="0" y="0" width="140" height="60" fill="#FFFFFF" stroke="#000000" stroke-width="2" />
      </g>
      <g transform="translate(150, -160) rotate(15)">
        <rect x="0" y="0" width="120" height="50" fill="#FFFFFF" stroke="#000000" stroke-width="2" />
      </g>
      
      <!-- Small orange accent -->
      <rect x="10" y="20" width="20" height="60" fill="#FF6B00" />
      
      <!-- Bottom left small element -->
      <g transform="translate(-80, 100)">
        <rect x="0" y="0" width="80" height="50" rx="10" fill="#FFFFFF" stroke="#000000" stroke-width="2" />
        <circle cx="20" cy="25" r="10" stroke="#333333" stroke-width="1" fill="none" />
      </g>
    </g>
  </g>
</svg>